<?xml version="1.0" standalone="no"?>
<!DOCTYPE svg PUBLIC "-//W3C//DTD SVG 20010904//EN"
 "http://www.w3.org/TR/2001/REC-SVG-20010904/DTD/svg10.dtd">
<svg version="1.0" xmlns="http://www.w3.org/2000/svg"
 width="600.000000pt" height="600.000000pt" viewBox="0 0 600.000000 600.000000"
 preserveAspectRatio="xMidYMid meet">
<metadata>
Created by potrace 1.16, written by Peter Selinger 2001-2019
</metadata>
<g transform="translate(0.000000,600.000000) scale(0.100000,-0.100000)"
fill="#000000" stroke="none">
<path d="M0 3000 l0 -3000 3000 0 3000 0 0 3000 0 3000 -3000 0 -3000 0 0
-3000z m2879 1316 c72 -73 74 -76 75 -126 1 -43 6 -56 26 -72 172 -137 290
-242 290 -258 0 -24 -26 -50 -51 -50 -11 0 -47 33 -91 87 -40 47 -85 100 -99
116 l-26 30 -97 -117 c-63 -76 -103 -116 -116 -116 -20 0 -60 33 -60 48 1 23
36 59 132 137 93 74 106 89 98 105 -13 23 -41 33 -74 24 -16 -4 -35 -1 -49 9
-31 20 -147 137 -147 148 0 18 16 8 72 -48 32 -31 61 -54 65 -50 4 4 -19 33
-50 65 -31 32 -57 61 -57 65 0 20 30 1 79 -48 29 -30 58 -52 63 -49 6 4 -15
32 -46 63 -75 76 -72 99 3 28 55 -53 81 -68 81 -49 0 4 -25 32 -55 62 -52 52
-65 70 -47 70 4 0 41 -33 81 -74z m429 45 c6 -40 -7 -87 -37 -131 -38 -57 -76
-80 -129 -78 -32 1 -48 -4 -67 -22 -15 -14 -30 -20 -40 -16 -14 5 -12 11 15
36 27 25 30 34 25 63 -5 23 -1 45 9 65 30 58 124 114 186 109 28 -2 36 -6 38
-26z m-788 -266 c0 -13 -51 -15 -400 -15 l-400 0 0 -170 c0 -163 -1 -170 -20
-170 -19 0 -20 7 -20 185 l0 185 420 0 c367 0 420 -2 420 -15z m1800 -170 c0
-178 -1 -185 -20 -185 -19 0 -20 7 -20 170 l0 170 -400 0 c-349 0 -400 2 -400
15 0 13 53 15 420 15 l420 0 0 -185z m-2826 -399 c40 -25 56 -73 56 -164 0
-67 -4 -85 -24 -114 l-23 -35 33 -126 32 -127 -48 0 -48 0 -27 110 c-27 108
-28 110 -56 110 l-29 0 0 -110 0 -110 -45 0 -45 0 0 296 0 296 98 -4 c73 -3
106 -8 126 -22z m404 -23 l3 -42 -83 -3 -83 -3 -3 -77 -3 -78 61 0 60 0 0 -45
0 -45 -60 0 -60 0 0 -80 0 -79 83 -3 82 -3 3 -42 3 -43 -130 0 -131 0 0 295 0
296 128 -3 127 -3 3 -42z m304 7 c30 -30 39 -45 36 -67 -2 -23 -9 -29 -38 -33
-31 -5 -37 -2 -50 25 -29 57 -90 41 -90 -24 0 -44 20 -75 88 -136 97 -87 127
-193 75 -264 -44 -59 -138 -76 -200 -36 -28 19 -63 85 -63 120 0 22 4 25 38
25 36 0 40 -3 54 -38 20 -51 51 -60 85 -26 40 40 26 74 -67 169 -87 90 -102
117 -101 187 0 92 46 137 140 138 49 0 56 -3 93 -40z m386 -7 l3 -43 -50 0
-51 0 0 -250 0 -250 -45 0 -45 0 0 250 0 250 -45 0 -45 0 0 45 0 46 138 -3
137 -3 3 -42z m256 -235 c25 -156 46 -289 46 -295 0 -9 -16 -13 -44 -13 l-45
0 -6 48 c-11 81 -12 82 -60 82 -47 0 -44 5 -61 -92 -6 -37 -7 -38 -50 -38 -34
0 -44 4 -44 17 0 19 89 542 95 561 3 8 25 12 63 12 l59 0 47 -282z m196 47 c0
-222 1 -236 20 -255 22 -22 37 -25 60 -10 12 8 16 51 20 252 l5 243 45 0 45 0
0 -250 c0 -244 -1 -251 -23 -282 -13 -18 -41 -39 -67 -49 -59 -22 -110 -8
-154 41 l-31 36 0 254 0 255 40 0 40 0 0 -235z m497 210 c44 -26 53 -53 53
-157 0 -74 -4 -97 -21 -124 l-21 -34 31 -118 c17 -66 31 -122 31 -125 0 -4
-22 -7 -48 -7 l-49 0 -24 108 -24 107 -32 3 -33 3 0 -110 0 -111 -45 0 -45 0
0 288 c0 159 3 292 8 296 4 5 48 6 97 4 65 -3 99 -9 122 -23z m415 -255 c26
-151 47 -283 47 -292 1 -15 -8 -18 -43 -18 -48 0 -45 -5 -62 93 l-6 38 -47 -3
-46 -3 -9 -62 -9 -63 -49 0 c-45 0 -48 2 -43 23 7 30 95 547 95 559 0 5 28 8
62 6 l63 -3 47 -275z m280 93 l57 -188 0 188 1 187 45 0 45 0 0 -295 0 -295
-47 0 -48 0 -56 173 -57 172 -1 -172 -1 -173 -45 0 -45 0 0 295 0 295 48 0 48
0 56 -187z m498 142 l0 -45 -45 0 -45 0 0 -250 0 -250 -45 0 -45 0 -2 248 -3
247 -47 3 -48 3 0 38 c0 21 3 41 7 44 3 4 66 7 140 7 l133 0 0 -45z m-3010
-893 l0 -158 123 -76 c67 -43 221 -140 342 -217 228 -145 313 -198 625 -395
102 -64 191 -114 197 -111 7 2 235 145 505 316 271 171 555 350 630 398 l138
86 0 158 c0 150 1 157 20 157 19 0 20 -7 20 -164 l0 -164 -187 -119 c-104 -65
-234 -148 -290 -183 l-103 -65 137 -137 c109 -109 135 -140 125 -150 -10 -10
-41 16 -150 125 -75 75 -140 137 -144 137 -4 0 -160 -97 -347 -215 -188 -119
-347 -218 -354 -221 -7 -2 -169 95 -360 216 -192 121 -351 220 -355 220 -4 0
-69 -62 -144 -137 -109 -109 -140 -135 -150 -125 -10 10 16 41 125 150 l137
138 -92 57 c-51 31 -181 112 -288 180 l-195 124 -3 166 c-2 162 -2 167 18 167
19 0 20 -6 20 -158z"/>
<path d="M1378 3453 c-16 -4 -18 -17 -18 -94 l0 -89 38 0 c54 0 62 13 62 97 0
70 -1 74 -26 83 -26 10 -28 11 -56 3z"/>
<path d="M3407 3453 c-4 -3 -7 -46 -7 -95 l0 -88 39 0 c30 0 44 6 55 22 20 28
21 117 3 142 -13 18 -78 32 -90 19z"/>
</g>
</svg>
